<svg xmlns="http://www.w3.org/2000/svg" viewBox="0 0 185 44" width="185" height="44" shape-rendering="crispEdges"><rect x="2" y="2" width="181" height="36" fill="#1D2B53" stroke="#29ADFF" stroke-width="3"/><rect x="6" y="38" width="177" height="4" fill="#29ADFF" opacity="0.55"/><g fill="#29ADFF"><animate attributeName="opacity" values="1;0.3;1" dur="1.8s" calcMode="spline" keySplines="0.4 0 0.6 1;0.4 0 0.6 1" repeatCount="indefinite"/><rect x="10" y="10" width="3" height="3"/><rect x="10" y="13" width="6" height="3"/><rect x="10" y="16" width="9" height="3"/><rect x="10" y="19" width="12" height="3"/><rect x="10" y="22" width="9" height="3"/><rect x="10" y="25" width="6" height="3"/><rect x="10" y="28" width="3" height="3"/></g><g fill="#FFF1E8"><rect x="30" y="10" width="3" height="3"/><rect x="30" y="13" width="3" height="3"/><rect x="30" y="16" width="3" height="3"/><rect x="30" y="19" width="3" height="3"/><rect x="30" y="22" width="3" height="3"/><rect x="30" y="25" width="3" height="3"/><rect x="30" y="28" width="15" height="3"/><rect x="51" y="10" width="9" height="3"/><rect x="54" y="13" width="3" height="3"/><rect x="54" y="16" width="3" height="3"/><rect x="54" y="19" width="3" height="3"/><rect x="54" y="22" width="3" height="3"/><rect x="54" y="25" width="3" height="3"/><rect x="51" y="28" width="9" height="3"/><rect x="66" y="10" width="3" height="3"/><rect x="78" y="10" width="3" height="3"/><rect x="66" y="13" width="6" height="3"/><rect x="78" y="13" width="3" height="3"/><rect x="66" y="16" width="3" height="3"/><rect x="72" y="16" width="3" height="3"/><rect x="78" y="16" width="3" height="3"/><rect x="66" y="19" width="3" height="3"/><rect x="75" y="19" width="6" height="3"/><rect x="66" y="22" width="3" height="3"/><rect x="78" y="22" width="3" height="3"/><rect x="66" y="25" width="3" height="3"/><rect x="78" y="25" width="3" height="3"/><rect x="66" y="28" width="3" height="3"/><rect x="78" y="28" width="3" height="3"/><rect x="84" y="10" width="3" height="3"/><rect x="96" y="10" width="3" height="3"/><rect x="84" y="13" width="3" height="3"/><rect x="93" y="13" width="3" height="3"/><rect x="84" y="16" width="3" height="3"/><rect x="90" y="16" width="3" height="3"/><rect x="84" y="19" width="6" height="3"/><rect x="84" y="22" width="3" height="3"/><rect x="90" y="22" width="3" height="3"/><rect x="84" y="25" width="3" height="3"/><rect x="93" y="25" width="3" height="3"/><rect x="84" y="28" width="3" height="3"/><rect x="96" y="28" width="3" height="3"/><rect x="102" y="10" width="15" height="3"/><rect x="102" y="13" width="3" height="3"/><rect x="102" y="16" width="3" height="3"/><rect x="102" y="19" width="12" height="3"/><rect x="102" y="22" width="3" height="3"/><rect x="102" y="25" width="3" height="3"/><rect x="102" y="28" width="15" height="3"/><rect x="120" y="10" width="12" height="3"/><rect x="120" y="13" width="3" height="3"/><rect x="132" y="13" width="3" height="3"/><rect x="120" y="16" width="3" height="3"/><rect x="132" y="16" width="3" height="3"/><rect x="120" y="19" width="3" height="3"/><rect x="132" y="19" width="3" height="3"/><rect x="120" y="22" width="3" height="3"/><rect x="132" y="22" width="3" height="3"/><rect x="120" y="25" width="3" height="3"/><rect x="132" y="25" width="3" height="3"/><rect x="120" y="28" width="12" height="3"/><rect x="141" y="10" width="9" height="3"/><rect x="144" y="13" width="3" height="3"/><rect x="144" y="16" width="3" height="3"/><rect x="144" y="19" width="3" height="3"/><rect x="144" y="22" width="3" height="3"/><rect x="144" y="25" width="3" height="3"/><rect x="141" y="28" width="9" height="3"/><rect x="156" y="10" width="3" height="3"/><rect x="168" y="10" width="3" height="3"/><rect x="156" y="13" width="6" height="3"/><rect x="168" y="13" width="3" height="3"/><rect x="156" y="16" width="3" height="3"/><rect x="162" y="16" width="3" height="3"/><rect x="168" y="16" width="3" height="3"/><rect x="156" y="19" width="3" height="3"/><rect x="165" y="19" width="6" height="3"/><rect x="156" y="22" width="3" height="3"/><rect x="168" y="22" width="3" height="3"/><rect x="156" y="25" width="3" height="3"/><rect x="168" y="25" width="3" height="3"/><rect x="156" y="28" width="3" height="3"/><rect x="168" y="28" width="3" height="3"/></g></svg>